<svg width="38" height="37" viewBox="0 0 38 37" fill="none" xmlns="http://www.w3.org/2000/svg">
<path d="M25.3333 10.7917C25.3333 9.94023 26.0422 9.25 26.9167 9.25C27.7911 9.25 28.5 9.94023 28.5 10.7917C28.5 11.6431 27.7911 12.3333 26.9167 12.3333C26.0422 12.3333 25.3333 11.6431 25.3333 10.7917Z" fill="#696969"/>
<path fill-rule="evenodd" clip-rule="evenodd" d="M19 11.1771C14.8464 11.1771 11.4792 14.4557 11.4792 18.5C11.4792 22.5443 14.8464 25.8229 19 25.8229C23.1536 25.8229 26.5208 22.5443 26.5208 18.5C26.5208 14.4557 23.1536 11.1771 19 11.1771ZM13.8542 18.5C13.8542 15.7328 16.158 13.4896 19 13.4896C21.842 13.4896 24.1458 15.7328 24.1458 18.5C24.1458 21.2672 21.842 23.5104 19 23.5104C16.158 23.5104 13.8542 21.2672 13.8542 18.5Z" fill="#696969"/>
<path fill-rule="evenodd" clip-rule="evenodd" d="M27.3256 4.36756C21.8368 3.77026 16.1632 3.77026 10.6745 4.36756C7.48872 4.71425 4.91685 7.15781 4.54231 10.2759C3.88596 15.74 3.88596 21.26 4.54231 26.7241C4.91685 29.8422 7.48872 32.2857 10.6745 32.6324C16.1632 33.2297 21.8368 33.2297 27.3256 32.6324C30.5113 32.2857 33.0832 29.8422 33.4577 26.7241C34.1141 21.26 34.1141 15.74 33.4577 10.2759C33.0832 7.15781 30.5113 4.71425 27.3256 4.36756ZM10.9383 6.66576C16.2517 6.08753 21.7484 6.08753 27.0618 6.66576C29.1678 6.89494 30.8548 8.51309 31.0988 10.5445C31.7337 15.8302 31.7337 21.1698 31.0988 26.4555C30.8548 28.4869 29.1678 30.1051 27.0618 30.3342C21.7484 30.9125 16.2517 30.9125 10.9383 30.3342C8.83227 30.1051 7.14525 28.4869 6.90123 26.4555C6.26632 21.1698 6.26632 15.8302 6.90123 10.5445C7.14525 8.51309 8.83227 6.89494 10.9383 6.66576Z" fill="#696969"/>
</svg>
