<svg width="34" height="28" viewBox="0 0 34 28" fill="none" xmlns="http://www.w3.org/2000/svg">
<path d="M7.27132 5.82945C6.90331 5.63129 6.45822 5.6412 6.09939 5.85553C5.74056 6.06985 5.52082 6.45704 5.52082 6.87501V21.9167C5.52082 22.5725 6.05248 23.1042 6.70832 23.1042C7.36416 23.1042 7.89582 22.5725 7.89582 21.9167V8.86315L16.437 13.4622C16.7885 13.6515 17.2115 13.6515 17.563 13.4622L26.1042 8.86315V21.9167C26.1042 22.5725 26.6358 23.1042 27.2917 23.1042C27.9475 23.1042 28.4792 22.5725 28.4792 21.9167V6.87501C28.4792 6.45704 28.2594 6.06985 27.9006 5.85553C27.5418 5.6412 27.0967 5.63129 26.7287 5.82945L17 11.068L7.27132 5.82945Z" fill="#696969"/>
<path fill-rule="evenodd" clip-rule="evenodd" d="M25.4084 0.892919C19.814 0.392709 14.186 0.392709 8.59158 0.892919L6.18912 1.10773C3.61207 1.33815 1.52987 3.3069 1.15558 5.86702C0.367084 11.2603 0.367084 16.7397 1.15558 22.133C1.52987 24.6931 3.61207 26.6619 6.18912 26.8923L8.59158 27.1071C14.186 27.6073 19.814 27.6073 25.4084 27.1071L27.8109 26.8923C30.3879 26.6619 32.4701 24.6931 32.8444 22.133C33.6329 16.7397 33.6329 11.2603 32.8444 5.86702C32.4701 3.3069 30.3879 1.33815 27.8109 1.10773L25.4084 0.892919ZM8.80309 3.25848C14.2568 2.77085 19.7432 2.77085 25.1969 3.25848L27.5994 3.47329C29.0816 3.60581 30.2791 4.73814 30.4944 6.21059C31.2496 11.3761 31.2496 16.6239 30.4944 21.7894C30.2791 23.2619 29.0816 24.3942 27.5994 24.5267L25.1969 24.7415C19.7432 25.2292 14.2568 25.2292 8.80309 24.7415L6.40063 24.5267C4.91844 24.3942 3.72087 23.2619 3.5056 21.7894C2.75041 16.6239 2.75041 11.3761 3.5056 6.21059C3.72087 4.73814 4.91844 3.60581 6.40063 3.47329L8.80309 3.25848Z" fill="#696969"/>
</svg>
