<svg width="38" height="38" viewBox="0 0 38 38" fill="none" xmlns="http://www.w3.org/2000/svg">
<path fill-rule="evenodd" clip-rule="evenodd" d="M23.7839 5.29384C24.5889 5.15596 25.4903 5.10992 26.3386 5.25344C27.8536 5.50975 29.253 6.2139 30.3592 7.2696C31.0823 7.28596 31.793 7.1435 32.4218 6.94042C32.9539 6.76855 33.4035 6.56102 33.7185 6.39693C33.8751 6.31534 33.9961 6.24573 34.0748 6.19862C34.114 6.17509 34.1426 6.15729 34.1595 6.14654L34.1746 6.13694C34.6445 5.82387 35.2703 5.8848 35.6707 6.28302C36.0712 6.68133 36.1357 7.30662 35.8249 7.7783C35.496 8.27752 35.0395 9.16746 34.528 10.1646C34.4476 10.3214 34.3658 10.4808 34.2829 10.6418C33.9895 11.2117 33.6887 11.7878 33.4083 12.282C33.2323 12.5923 33.044 12.9073 32.8541 13.1796V13.613C32.8662 15.2053 32.6836 16.7892 32.3129 18.3301C32.0797 19.2997 31.7721 20.2522 31.3918 21.1791C30.4063 23.5805 28.9521 25.7614 27.1143 27.5945C25.2765 29.4276 23.0918 30.8761 20.6879 31.8555C18.2861 32.834 15.7136 33.3245 13.1204 33.2985C9.36105 33.3017 5.6808 32.2186 2.52249 30.1794C2.05731 29.8791 1.86145 29.2971 2.0504 28.7766C2.23935 28.2561 2.76295 27.9353 3.31248 28.0033C3.78805 28.0621 4.26686 28.0909 4.74606 28.0893C6.46786 28.0845 8.15686 27.704 9.69881 26.9873C9.20869 26.7642 8.74076 26.4891 8.30352 26.1649C7.0183 25.2119 6.06211 23.882 5.568 22.3602C5.4396 21.9647 5.52738 21.5309 5.79942 21.2165C5.80429 21.2108 5.80921 21.2053 5.81417 21.1998C5.52359 20.9406 5.25168 20.6585 5.00137 20.3551C3.87511 18.9899 3.25496 17.2777 3.24581 15.5079L3.24577 15.5018L3.24579 15.4226C3.24579 15.0017 3.46865 14.6122 3.83155 14.3989C3.92355 14.3448 4.02105 14.3041 4.12136 14.2768C3.58567 13.2079 3.30709 12.0276 3.30912 10.8302C3.30849 9.47367 3.66283 8.14055 4.33696 6.96334C4.53157 6.6235 4.88121 6.40146 5.27155 6.36983C5.66189 6.3382 6.04272 6.50105 6.2895 6.80513C7.81355 8.68298 9.71559 10.2192 11.8721 11.314C12.9806 11.8768 14.1437 12.3165 15.3403 12.6276C16.0113 12.8019 16.6927 12.9359 17.3811 13.0284C17.3508 11.8832 17.5769 10.7387 18.0515 9.6811C18.7477 8.12971 19.9391 6.85327 21.4389 6.05195C22.074 5.7126 22.9172 5.44231 23.7839 5.29384ZM5.92681 17.244C6.13208 17.8218 6.43746 18.3638 6.83338 18.8437C7.61131 19.7866 8.69105 20.4319 9.88998 20.6704C10.424 20.7767 10.8174 21.2325 10.8443 21.7763C10.8713 22.3202 10.5249 22.8126 10.004 22.9712C9.57257 23.1025 9.13054 23.194 8.68348 23.2448C8.9789 23.6256 9.32641 23.9667 9.71813 24.2572C10.6067 24.916 11.6785 25.2815 12.7845 25.3028C13.2863 25.3125 13.7278 25.6366 13.8874 26.1124C14.0471 26.5882 13.8904 27.113 13.4959 27.4234C11.8348 28.7305 9.91386 29.6419 7.87841 30.1072C9.56542 30.6475 11.3347 30.9256 13.1243 30.9234L13.1381 30.9234C15.4182 30.9471 17.6802 30.5163 19.7919 29.656C21.9036 28.7957 23.8227 27.5233 25.4371 25.913C27.0515 24.3027 28.3289 22.3869 29.1946 20.2774C29.5287 19.4632 29.7989 18.6264 30.0038 17.7748C30.3297 16.4198 30.4901 15.027 30.4792 13.6269L30.4791 13.6176V12.7784C30.4791 12.4905 30.5837 12.2124 30.7735 11.9958C30.8832 11.8707 31.075 11.5816 31.3427 11.11C31.597 10.6617 31.8785 10.1235 32.1713 9.55478C32.189 9.52039 32.2067 9.48582 32.2246 9.45109C31.4653 9.61598 30.6046 9.70241 29.7024 9.60491C29.4166 9.57403 29.1518 9.44057 28.957 9.22929C28.1608 8.36584 27.1005 7.79108 25.9424 7.59516C25.4286 7.50823 24.8073 7.52813 24.1849 7.63474C23.5086 7.75058 22.9201 7.95327 22.5581 8.14671C21.5221 8.7002 20.6992 9.58187 20.2183 10.6534C19.7375 11.725 19.6259 12.9259 19.9011 14.0677C19.9888 14.4318 19.8997 14.8158 19.6606 15.1041C19.4216 15.3923 19.0606 15.5508 18.6866 15.5319C17.3512 15.4644 16.03 15.2607 14.7429 14.9262C13.3814 14.5723 12.0582 14.0721 10.7969 13.4318C8.94002 12.489 7.24893 11.2586 5.78461 9.78978C5.71781 10.1312 5.68389 10.4795 5.68412 10.8302L5.68412 10.8332C5.68247 11.7052 5.89645 12.564 6.30703 13.3333C6.7176 14.1025 7.31202 14.7583 8.03736 15.2423C8.47757 15.536 8.6703 16.0856 8.50998 16.5899C8.34967 17.0942 7.87498 17.4316 7.34599 17.4172C6.86688 17.4041 6.39178 17.3459 5.92681 17.244Z" fill="#696969"/>
</svg>
