<svg width="38" height="38" viewBox="0 0 38 38" fill="none" xmlns="http://www.w3.org/2000/svg">
<path fill-rule="evenodd" clip-rule="evenodd" d="M16.4443 13.2317C16.0774 13.0116 15.6205 13.0059 15.2482 13.2166C14.876 13.4274 14.6458 13.8222 14.6458 14.25V23.75C14.6458 24.1778 14.876 24.5726 15.2482 24.7834C15.6205 24.9942 16.0774 24.9884 16.4443 24.7683L24.361 20.0183C24.7186 19.8037 24.9375 19.4171 24.9375 19C24.9375 18.5829 24.7186 18.1963 24.361 17.9817L16.4443 13.2317ZM21.4419 19L17.0208 21.6527V16.3474L21.4419 19Z" fill="#696969"/>
<path fill-rule="evenodd" clip-rule="evenodd" d="M26.9652 7.3487C21.6632 6.9339 16.3369 6.9339 11.0348 7.3487L7.48707 7.62626C5.32967 7.79505 3.56475 9.41195 3.20813 11.5464C2.38359 16.4812 2.38359 21.5188 3.20813 26.4537C3.56475 28.5881 5.32967 30.205 7.48707 30.3737L11.0348 30.6513C16.3369 31.0661 21.6632 31.0661 26.9652 30.6513L30.513 30.3737C32.6704 30.205 34.4353 28.5881 34.7919 26.4537C35.6165 21.5188 35.6165 16.4812 34.7919 11.5464C34.4353 9.41195 32.6704 7.79505 30.513 7.62626L26.9652 7.3487ZM11.2201 9.71647C16.3988 9.31131 21.6013 9.31131 26.78 9.71647L30.3278 9.99403C31.3975 10.0777 32.2726 10.8794 32.4494 11.9378C33.2307 16.6135 33.2307 21.3865 32.4494 26.0623C32.2726 27.1206 31.3975 27.9223 30.3278 28.006L26.78 28.2835C21.6013 28.6887 16.3988 28.6887 11.2201 28.2835L7.67231 28.006C6.6026 27.9223 5.72748 27.1206 5.55066 26.0623C4.76941 21.3865 4.76941 16.6135 5.55066 11.9378C5.72748 10.8794 6.6026 10.0777 7.67231 9.99403L11.2201 9.71647Z" fill="#696969"/>
</svg>
